<svg width="360" height="292" viewBox="0 0 360 292" fill="none" xmlns="http://www.w3.org/2000/svg">
    <rect width="360" height="292" rx="29" fill="#FF7A8A"/>
    <path d="M107.884 146.122C113.284 146.122 116.643 150.13 116.643 155.034C116.643 160.052 113.284 163.811 107.884 163.811H102.14V173.696H96.4158V146.122L107.884 146.122ZM106.93 159.022C109.792 159.022 111.128 157.438 111.128 154.957C111.128 152.572 109.792 150.912 106.93 150.912H102.14V159.022H106.93ZM133.191 173.696L126.017 161.56H124.357V173.696H118.632V146.122H128.63C134.87 146.122 137.504 149.805 137.504 154.366C137.504 158.068 135.405 160.472 131.664 161.273L139.965 173.696L133.191 173.696ZM124.356 150.875V157.458H127.734C130.787 157.458 132.027 156.16 132.027 154.176C132.027 152.21 130.787 150.875 127.734 150.875H124.356ZM157.335 151.161H147.107V157.42H156.171V162.4H147.107V168.64H157.335V173.697H141.345V146.123H157.335V151.161ZM160.412 173.696V146.122H170.392C179.188 146.122 183.539 151.656 183.539 159.9C183.539 168.162 179.188 173.696 170.392 173.696H160.412ZM166.136 168.639H170.105C175.181 168.639 177.509 165.472 177.509 159.9C177.509 154.328 175.181 151.16 170.105 151.16H166.136V168.639ZM186.082 173.696V146.122H191.806V173.696H186.082ZM208.316 174.078C200.207 174.078 194.215 168.563 194.215 159.9C194.215 151.236 200.206 145.741 208.316 145.741C214.461 145.741 219.384 148.89 221.35 154.118L216.007 156.064C214.785 152.859 211.866 151.008 208.317 151.008C203.565 151.008 199.92 154.328 199.92 159.9C199.92 165.472 203.565 168.811 208.317 168.811C211.866 168.811 214.785 166.941 216.007 163.735L221.35 165.682C219.384 170.91 214.461 174.078 208.316 174.078ZM239.216 146.122V151.16H232.671V173.695H227.003V151.16H220.42V146.122H239.216Z"
          fill="white"/>
    <path d="M271.42 154.038C271.308 153.701 271.19 153.368 271.066 153.038C271.059 153.017 271.056 152.997 271.049 152.975C270.948 152.712 270.98 152.359 271.018 151.949C271.115 150.887 271.246 149.432 269.361 147.889C268.175 146.917 266.731 146.678 265.203 146.426C264.334 146.281 263.436 146.134 262.522 145.842C261.994 145.674 261.473 145.716 261.016 145.964C260.873 146.041 260.746 146.139 260.628 146.246C257.458 145.466 254.049 145.712 251.167 146.969C247.355 148.632 244.471 152.165 243.452 156.421C242.882 158.824 242.978 161.437 243.728 163.977C244.212 165.618 245.396 167.945 247.403 169.952C249.67 172.219 252.986 174.078 257.526 174.078C261.385 174.077 265.05 172.624 267.847 169.986C271.962 166.101 273.364 159.841 271.42 154.038ZM259.837 150.035C260.126 150.586 260.573 151.06 261.014 151.526C261.189 151.71 261.373 151.904 261.557 152.113C261.923 152.525 262.045 152.787 262.198 153.116C262.371 153.486 262.566 153.903 263.055 154.5C263.113 154.57 263.172 154.637 263.234 154.698C263.525 154.988 263.863 155.184 264.211 155.323C264.553 155.933 264.812 156.553 264.993 157.235C265.364 158.628 265.332 160.189 264.903 161.633C264.545 162.831 263.934 163.898 263.058 164.87C262.876 165.054 262.084 165.796 261.62 166.09C260.364 166.882 259.076 167.333 257.79 167.431C255.337 167.62 253.159 166.837 251.491 165.168L251.486 165.163C250.837 164.515 249.903 163.344 249.398 162.169C248.784 160.74 248.571 159.071 248.799 157.471C249.063 155.731 249.792 154.193 251.029 152.772C251.315 152.443 252.358 151.526 253.132 151.079C254.103 150.518 255.259 150.137 256.478 149.972C257.535 149.829 258.694 149.864 259.837 150.035ZM264.653 169.929L264.767 169.218C264.84 168.767 264.533 168.343 264.082 168.271C263.631 168.2 263.208 168.507 263.135 168.957L262.929 170.248C262.887 170.514 262.977 170.779 263.161 170.963C263.213 171.013 263.273 171.057 263.338 171.094C262.399 171.545 261.409 171.886 260.386 172.108L260.132 171.854L260.484 171.21C260.702 170.809 260.554 170.305 260.153 170.09C259.753 169.871 259.251 170.018 259.033 170.42L258.386 171.607C258.251 171.853 258.256 172.145 258.382 172.385C258.097 172.402 257.813 172.424 257.526 172.426C256.722 172.426 255.966 172.356 255.247 172.236L255.174 172.021L255.574 171.78C255.965 171.545 256.092 171.037 255.859 170.646C255.622 170.253 255.114 170.128 254.724 170.362L253.748 170.948C253.461 171.121 253.323 171.445 253.366 171.768C252.169 171.366 251.112 170.809 250.191 170.155L250.199 170.116L250.78 169.993C251.227 169.897 251.512 169.459 251.417 169.013C251.323 168.565 250.884 168.282 250.438 168.376L249.331 168.61C249.101 168.66 248.909 168.805 248.792 169.003C247.9 168.154 247.179 167.231 246.621 166.334L246.967 166.309C247.422 166.277 247.765 165.883 247.735 165.427C247.703 164.973 247.309 164.63 246.852 164.66L245.769 164.736C245.574 164.296 245.422 163.882 245.312 163.508C245.155 162.976 245.033 162.435 244.942 161.892L245.111 161.934C245.555 162.038 246 161.764 246.106 161.321C246.211 160.876 245.936 160.433 245.494 160.324L244.757 160.15C244.723 159.358 244.765 158.576 244.873 157.82L244.985 157.895C245.363 158.151 245.876 158.052 246.132 157.674C246.388 157.296 246.29 156.783 245.911 156.527L245.256 156.082C246.29 152.654 248.706 149.845 251.829 148.483C254.23 147.435 257.048 147.192 259.723 147.741C259.69 147.836 259.663 147.929 259.638 148.017C259.607 148.128 259.584 148.237 259.567 148.343C258.434 148.208 257.302 148.191 256.26 148.333C254.809 148.528 253.481 148.971 252.31 149.645C251.306 150.226 250.149 151.266 249.784 151.686C248.355 153.327 247.475 155.191 247.167 157.231C246.895 159.133 247.15 161.117 247.882 162.819C248.479 164.207 249.532 165.541 250.319 166.329C250.321 166.33 250.323 166.333 250.325 166.334C252.316 168.325 255.013 169.299 257.92 169.076C259.476 168.958 261.018 168.423 262.503 167.485C263.203 167.043 264.2 166.07 264.266 165.998C265.33 164.817 266.057 163.544 266.488 162.103C267.004 160.372 267.041 158.49 266.592 156.808C266.474 156.369 266.328 155.949 266.158 155.54C266.287 155.52 266.405 155.496 266.499 155.467C266.936 155.333 267.181 154.872 267.047 154.436C266.913 154.001 266.452 153.754 266.015 153.887C265.79 153.957 264.79 154.028 264.336 153.452C263.978 153.015 263.846 152.738 263.698 152.416C263.522 152.037 263.321 151.609 262.798 151.018C262.601 150.793 262.404 150.585 262.215 150.387C261.327 149.449 261.055 149.092 261.231 148.458C261.408 147.821 261.651 147.498 261.804 147.415C261.834 147.398 261.886 147.37 262.022 147.414C263.051 147.742 264.053 147.907 264.936 148.054C266.298 148.278 267.471 148.472 268.317 149.165C269.521 150.156 269.458 150.879 269.374 151.798C269.326 152.334 269.271 152.943 269.506 153.561C269.506 153.561 269.61 153.828 269.856 154.56C270.082 155.233 270.255 155.913 270.381 156.594L269.995 156.915L269.445 156.365C269.122 156.043 268.6 156.043 268.278 156.365C267.955 156.688 267.954 157.212 268.278 157.534L269.358 158.614C269.659 158.917 270.141 158.938 270.47 158.667L270.614 158.548C270.665 159.534 270.614 160.512 270.465 161.464L269.998 161.668L269.609 161.008C269.38 160.615 268.872 160.484 268.478 160.715C268.085 160.947 267.954 161.452 268.186 161.846L268.946 163.138C268.983 163.2 269.026 163.255 269.074 163.304C269.31 163.54 269.673 163.616 269.989 163.476H269.992C269.689 164.432 269.281 165.346 268.772 166.197L268.288 166.195L268.115 165.382C268.022 164.935 267.583 164.651 267.136 164.745C266.69 164.84 266.404 165.278 266.499 165.724L266.809 167.191C266.843 167.353 266.923 167.495 267.032 167.604C267.178 167.751 267.378 167.836 267.594 167.842C267.317 168.168 267.029 168.485 266.714 168.781C266.185 169.28 265.614 169.721 265.02 170.124L264.653 169.929ZM266.11 149.192C265.892 149.192 265.681 149.278 265.524 149.434C265.373 149.585 265.283 149.799 265.283 150.017C265.283 150.236 265.372 150.45 265.524 150.602C265.676 150.754 265.89 150.844 266.11 150.844C266.327 150.844 266.541 150.754 266.694 150.602C266.849 150.447 266.939 150.232 266.935 150.017C266.935 149.581 266.546 149.192 266.11 149.192Z"
          fill="white"/>
    <path d="M291.345 174.078L283.972 161.606H282.266V174.078H276.383V145.741H286.658C293.07 145.741 295.777 149.526 295.777 154.213C295.777 158.017 293.62 160.488 289.776 161.311L298.306 174.078L291.345 174.078ZM282.265 150.625V157.39H285.736C288.874 157.39 290.149 156.057 290.149 154.017C290.149 151.997 288.874 150.625 285.736 150.625H282.265Z"
          fill="white"/>
    <path d="M75.8533 61C87.8073 61 91.6884 67.6756 91.6884 77.1456V100.277C91.6884 114.094 86.4101 120.615 76.6296 135.363C70.7302 144.057 63.8994 152.595 63.8994 162.686V206H58V61H75.8533ZM85.7891 101.985V79.6295C85.7891 72.7987 84.2366 66.8994 74.7666 66.8994H63.8994V143.746C66.3833 139.71 69.6435 135.208 73.8351 129.308C81.4422 118.286 85.7891 111.61 85.7891 101.985Z"
          fill="#062743"/>
</svg>
